# xmcd
#
# Track frame offsets: 
#        150
#        19075
#        39182
#        85557
#        114097
#        153540
#        169435
#        199182
#        225210
#        263545
#
# Disc length: 3889 seconds
#
# Revision: 0
# Processed by: cddbd v1.5.2PL0 Copyright (c) Steve Scherf et al.
# Submitted via: ExactAudioCopy v1.0b1
#
DISCID=670f2f0a
DTITLE=Eric Clapton  - The Complete Hyde Park Show - 1996-06-29 - Disc
DTITLE=2
DYEAR=1900
DGENRE=
TTITLE0=It Hurts Me Too
TTITLE1=Wonderful Tonight
TTITLE2=Five Long Years
TTITLE3=Tearing Us Apart
TTITLE4=Old Love
TTITLE5=Tore Down
TTITLE6=Have You Ever Loved a Woman
TTITLE7=White Room
TTITLE8=Everyday I Have the Blues
TTITLE9=Holy Mother
EXTD=
EXTT0=
EXTT1=
EXTT2=
EXTT3=
EXTT4=
EXTT5=
EXTT6=
EXTT7=
EXTT8=
EXTT9=
PLAYORDER=
